M48
METRIC,LZ,000.000
;FILE_FORMAT=3:3
;TYPE=PLATED
;Layer: PTH_Through
;EasyEDA v6.5.42, 2024-05-28 01:04:16
;864da046108442dba22ddf06c26b1ed7,510c7b70758e4c7f89447156c1b3190b,10
;Gerber Generator version 0.2
;Holesize 1 = 0.306 mm
T01C0.306
;Holesize 2 = 0.901 mm
T02C0.901
;Holesize 3 = 0.915 mm
T03C0.915
;Holesize 4 = 1.000 mm
T04C1.000
%
G05
G90
T01
X018064Y091725
X029663Y089595
X039303Y030196
X027624Y092921
X027624Y028509
X048988Y090250
X019302Y086420
X059073Y029728
X025607Y043909
X027345Y095132
X029029Y028063
X011200Y013345
X049200Y027484
X023429Y088558
X013276Y079383
X012354Y088674
X008430Y089623
X020730Y088570
X026412Y095295
X012157Y089877
X015650Y035911
X007879Y092804
T02
X039777Y017620G85X039782Y017620
X037237Y002380G85X037242Y002380
X032157Y002379G85X032162Y002379
X027077Y002379G85X027082Y002379
X021997Y002379G85X022002Y002379
X016917Y002379G85X016922Y002379
X011837Y002379G85X011842Y002379
X006757Y002379G85X006762Y002379
X004217Y017620G85X004222Y017620
X009298Y017619G85X009303Y017619
X014378Y017619G85X014383Y017619
X019458Y017619G85X019463Y017619
X024538Y017619G85X024543Y017619
X029618Y017619G85X029623Y017619
X034698Y017619G85X034703Y017619
X037237Y017620G85X037242Y017620
X032157Y017620G85X032162Y017620
X027077Y017620G85X027082Y017620
X021997Y017620G85X022002Y017620
X016917Y017620G85X016922Y017620
X011837Y017620G85X011842Y017620
X006757Y017620G85X006762Y017620
X004217Y002380G85X004222Y002380
X009297Y002380G85X009302Y002380
X014377Y002380G85X014382Y002380
X019457Y002380G85X019462Y002380
X024537Y002380G85X024542Y002380
X029617Y002380G85X029622Y002380
X034697Y002380G85X034702Y002380
X039777Y002380G85X039782Y002380
T03
X064389Y032893
X064389Y030353
X064389Y027813
X064389Y025273
X064389Y022733
X064389Y020193
X064389Y017653
X064389Y015113
T04
X037592Y095631
X040132Y095631
X042672Y095631
X045212Y095631
X045212Y093091
X042672Y093091
X040132Y093091
X037592Y093091
M30
