M48
METRIC,LZ,000.000
;FILE_FORMAT=3:3
;TYPE=PLATED
;Layer: PTH_Through_Via
;EasyEDA v6.5.42, 2024-05-28 01:04:16
;864da046108442dba22ddf06c26b1ed7,510c7b70758e4c7f89447156c1b3190b,10
;Gerber Generator version 0.2
;Holesize 1 = 0.306 mm
T01C0.306
%
G05
G90
T01
X018064Y091725
X029663Y089595
X039303Y030196
X027624Y092921
X027624Y028509
X048988Y090250
X019302Y086420
X059073Y029728
X025607Y043909
X027345Y095132
X029029Y028063
X011200Y013345
X049200Y027484
X023429Y088558
X013276Y079383
X012354Y088674
X008430Y089623
X020730Y088570
X026412Y095295
X012157Y089877
X015650Y035911
X007879Y092804
M30
