G04 Layer: BottomSilkscreenLayer*
G04 EasyEDA v6.5.42, 2024-05-28 01:04:16*
G04 864da046108442dba22ddf06c26b1ed7,510c7b70758e4c7f89447156c1b3190b,10*
G04 Gerber Generator version 0.2*
G04 Scale: 100 percent, Rotated: No, Reflected: No *
G04 Dimensions in millimeters *
G04 leading zeros omitted , absolute positions ,4 integer and 5 decimal *
%FSLAX45Y45*%
%MOMM*%

%ADD10C,0.1524*%
%ADD11C,0.1520*%
%ADD12C,0.2540*%
%ADD13C,0.2000*%
%ADD14C,0.1520*%
%ADD15C,0.0136*%

%LPD*%
D10*
X3099993Y8678900D02*
G01*
X3099993Y8569934D01*
X3099993Y8678900D02*
G01*
X3053257Y8678900D01*
X3037763Y8673820D01*
X3032429Y8668486D01*
X3027349Y8658072D01*
X3027349Y8647658D01*
X3032429Y8637244D01*
X3037763Y8632164D01*
X3053257Y8627084D01*
X3099993Y8627084D02*
G01*
X3053257Y8627084D01*
X3037763Y8621750D01*
X3032429Y8616670D01*
X3027349Y8606256D01*
X3027349Y8590508D01*
X3032429Y8580094D01*
X3037763Y8575014D01*
X3053257Y8569934D01*
X3099993Y8569934D01*
X2993059Y8658072D02*
G01*
X2982645Y8663406D01*
X2966897Y8678900D01*
X2966897Y8569934D01*
X1999995Y6478904D02*
G01*
X1999995Y6369938D01*
X1999995Y6478904D02*
G01*
X1953259Y6478904D01*
X1937765Y6473825D01*
X1932431Y6468490D01*
X1927352Y6458077D01*
X1927352Y6447662D01*
X1932431Y6437248D01*
X1937765Y6432169D01*
X1953259Y6427088D01*
X1999995Y6427088D02*
G01*
X1953259Y6427088D01*
X1937765Y6421754D01*
X1932431Y6416675D01*
X1927352Y6406261D01*
X1927352Y6390512D01*
X1932431Y6380098D01*
X1937765Y6375019D01*
X1953259Y6369938D01*
X1999995Y6369938D01*
X1887728Y6452996D02*
G01*
X1887728Y6458077D01*
X1882647Y6468490D01*
X1877313Y6473825D01*
X1866900Y6478904D01*
X1846326Y6478904D01*
X1835912Y6473825D01*
X1830578Y6468490D01*
X1825497Y6458077D01*
X1825497Y6447662D01*
X1830578Y6437248D01*
X1840992Y6421754D01*
X1893062Y6369938D01*
X1820163Y6369938D01*
X2799994Y4278909D02*
G01*
X2799994Y4169943D01*
X2799994Y4278909D02*
G01*
X2753258Y4278909D01*
X2737764Y4273829D01*
X2732430Y4268495D01*
X2727350Y4258081D01*
X2727350Y4247667D01*
X2732430Y4237253D01*
X2737764Y4232173D01*
X2753258Y4227093D01*
X2799994Y4227093D02*
G01*
X2753258Y4227093D01*
X2737764Y4221759D01*
X2732430Y4216679D01*
X2727350Y4206265D01*
X2727350Y4190517D01*
X2732430Y4180103D01*
X2737764Y4175023D01*
X2753258Y4169943D01*
X2799994Y4169943D01*
X2682646Y4278909D02*
G01*
X2625496Y4278909D01*
X2656484Y4237253D01*
X2640990Y4237253D01*
X2630576Y4232173D01*
X2625496Y4227093D01*
X2620162Y4211345D01*
X2620162Y4200931D01*
X2625496Y4185437D01*
X2635910Y4175023D01*
X2651404Y4169943D01*
X2666898Y4169943D01*
X2682646Y4175023D01*
X2687726Y4180103D01*
X2693060Y4190517D01*
X849998Y8852915D02*
G01*
X849998Y8743950D01*
X849998Y8852915D02*
G01*
X803262Y8852915D01*
X787768Y8847836D01*
X782434Y8842502D01*
X777354Y8832087D01*
X777354Y8821674D01*
X782434Y8811260D01*
X787768Y8806179D01*
X803262Y8801100D01*
X849998Y8801100D02*
G01*
X803262Y8801100D01*
X787768Y8795765D01*
X782434Y8790686D01*
X777354Y8780271D01*
X777354Y8764524D01*
X782434Y8754110D01*
X787768Y8749029D01*
X803262Y8743950D01*
X849998Y8743950D01*
X743064Y8852915D02*
G01*
X743064Y8774937D01*
X737730Y8759444D01*
X727316Y8749029D01*
X711822Y8743950D01*
X701408Y8743950D01*
X685914Y8749029D01*
X675500Y8759444D01*
X670166Y8774937D01*
X670166Y8852915D01*
X563232Y8852915D02*
G01*
X635876Y8743950D01*
X635876Y8852915D02*
G01*
X563232Y8852915D01*
X635876Y8743950D02*
G01*
X563232Y8743950D01*
X456298Y8852915D02*
G01*
X528942Y8743950D01*
X528942Y8852915D02*
G01*
X456298Y8852915D01*
X528942Y8743950D02*
G01*
X456298Y8743950D01*
X422008Y8852915D02*
G01*
X422008Y8743950D01*
X422008Y8852915D02*
G01*
X354444Y8852915D01*
X422008Y8801100D02*
G01*
X380352Y8801100D01*
X422008Y8743950D02*
G01*
X354444Y8743950D01*
X320154Y8852915D02*
G01*
X320154Y8743950D01*
X320154Y8852915D02*
G01*
X273418Y8852915D01*
X257670Y8847836D01*
X252590Y8842502D01*
X247256Y8832087D01*
X247256Y8821674D01*
X252590Y8811260D01*
X257670Y8806179D01*
X273418Y8801100D01*
X320154Y8801100D01*
X283578Y8801100D02*
G01*
X247256Y8743950D01*
X212966Y8832087D02*
G01*
X202552Y8837421D01*
X187058Y8852915D01*
X187058Y8743950D01*
X406400Y3595115D02*
G01*
X406400Y3486150D01*
X406400Y3595115D02*
G01*
X359663Y3595115D01*
X344170Y3590036D01*
X338836Y3584702D01*
X333755Y3574287D01*
X333755Y3563873D01*
X338836Y3553460D01*
X344170Y3548379D01*
X359663Y3543300D01*
X406400Y3543300D01*
X370078Y3543300D02*
G01*
X333755Y3486150D01*
X299465Y3574287D02*
G01*
X289052Y3579621D01*
X273304Y3595115D01*
X273304Y3486150D01*
X1221193Y8671298D02*
G01*
X1221193Y8749276D01*
X1226273Y8764770D01*
X1236687Y8775184D01*
X1252435Y8780264D01*
X1262849Y8780264D01*
X1278343Y8775184D01*
X1288757Y8764770D01*
X1293837Y8749276D01*
X1293837Y8671298D01*
X1328127Y8692126D02*
G01*
X1338541Y8686792D01*
X1354289Y8671298D01*
X1354289Y8780264D01*
X2333998Y9535706D02*
G01*
X2411976Y9535706D01*
X2427470Y9530626D01*
X2437884Y9520212D01*
X2442964Y9504464D01*
X2442964Y9494050D01*
X2437884Y9478556D01*
X2427470Y9468142D01*
X2411976Y9463062D01*
X2333998Y9463062D01*
X2333998Y9366288D02*
G01*
X2333998Y9418358D01*
X2380734Y9423438D01*
X2375654Y9418358D01*
X2370320Y9402610D01*
X2370320Y9387116D01*
X2375654Y9371622D01*
X2385814Y9361208D01*
X2401562Y9355874D01*
X2411976Y9355874D01*
X2427470Y9361208D01*
X2437884Y9371622D01*
X2442964Y9387116D01*
X2442964Y9402610D01*
X2437884Y9418358D01*
X2432804Y9423438D01*
X2422390Y9428772D01*
X368797Y3176015D02*
G01*
X368797Y3098037D01*
X363717Y3082544D01*
X353303Y3072129D01*
X337555Y3067050D01*
X327141Y3067050D01*
X311647Y3072129D01*
X301233Y3082544D01*
X296153Y3098037D01*
X296153Y3176015D01*
X251449Y3176015D02*
G01*
X194299Y3176015D01*
X225287Y3134360D01*
X209793Y3134360D01*
X199379Y3129279D01*
X194299Y3124200D01*
X188965Y3108452D01*
X188965Y3098037D01*
X194299Y3082544D01*
X204713Y3072129D01*
X220207Y3067050D01*
X235701Y3067050D01*
X251449Y3072129D01*
X256529Y3077210D01*
X261863Y3087623D01*
G36*
X4204970Y8515248D02*
G01*
X4204970Y7504988D01*
X4234992Y7500010D01*
X4235450Y7893202D01*
X4235450Y8515248D01*
G37*
G36*
X4204970Y7506766D02*
G01*
X4204970Y6884720D01*
X4235450Y6884720D01*
X4235450Y7506766D01*
G37*
G36*
X1987397Y8507628D02*
G01*
X1987397Y8360359D01*
X2134768Y8507628D01*
G37*
G36*
X3104997Y6315252D02*
G01*
X3104997Y5304993D01*
X3134969Y5300014D01*
X3135477Y5693206D01*
X3135477Y6315252D01*
G37*
G36*
X3104997Y5306771D02*
G01*
X3104997Y4684725D01*
X3135477Y4684725D01*
X3135477Y5306771D01*
G37*
G36*
X887374Y6307632D02*
G01*
X887374Y6160363D01*
X1034796Y6307632D01*
G37*
G36*
X3904996Y4115257D02*
G01*
X3904996Y3104997D01*
X3934968Y3100019D01*
X3935476Y3493211D01*
X3935476Y4115257D01*
G37*
G36*
X3904996Y3106775D02*
G01*
X3904996Y2484729D01*
X3935476Y2484729D01*
X3935476Y3106775D01*
G37*
G36*
X1687372Y4107637D02*
G01*
X1687372Y3960368D01*
X1834794Y4107637D01*
G37*
X1987374Y6892363D02*
G01*
X1987374Y7501663D01*
D11*
X4019989Y8364981D02*
G01*
X4129994Y8364981D01*
X2179998Y7034987D02*
G01*
X2069998Y7034987D01*
X2124997Y6979986D02*
G01*
X2124997Y7089985D01*
X1987374Y7898305D02*
G01*
X1987374Y7494290D01*
D10*
X4279991Y8504981D02*
G01*
X4279991Y6894741D01*
D11*
X4279991Y8507359D02*
G01*
X4264990Y8507359D01*
X4264990Y6892361D01*
X4279991Y6892361D01*
X4525002Y7349985D02*
G01*
X4212620Y7349985D01*
X4525002Y7349985D02*
G01*
X4525004Y7491971D01*
X4525002Y8049983D02*
G01*
X4525004Y7907997D01*
X4525002Y8049983D02*
G01*
X4212620Y8049983D01*
X1674995Y7349985D02*
G01*
X1987374Y7349985D01*
X1674995Y7349985D02*
G01*
X1674995Y7491971D01*
X1674995Y8049983D02*
G01*
X1674995Y7907997D01*
X1674995Y8049983D02*
G01*
X1987374Y8049983D01*
X2135972Y8507605D02*
G01*
X2133546Y8507605D01*
X1987374Y8361433D01*
D10*
X4212612Y8507605D02*
G01*
X1987374Y8507605D01*
X1987374Y8507605D02*
G01*
X1987374Y7898305D01*
X4212612Y6892363D02*
G01*
X1987374Y6892363D01*
X887376Y4692368D02*
G01*
X887376Y5301668D01*
D11*
X2919991Y6164986D02*
G01*
X3029996Y6164986D01*
X1080000Y4834991D02*
G01*
X970000Y4834991D01*
X1024999Y4779990D02*
G01*
X1024999Y4889990D01*
X887376Y5698309D02*
G01*
X887376Y5294294D01*
D10*
X3179993Y6304986D02*
G01*
X3179993Y4694745D01*
D11*
X3179993Y6307363D02*
G01*
X3164992Y6307363D01*
X3164992Y4692365D01*
X3179993Y4692365D01*
X3425004Y5149989D02*
G01*
X3112622Y5149989D01*
X3425004Y5149989D02*
G01*
X3425007Y5291975D01*
X3425004Y5849988D02*
G01*
X3425007Y5708002D01*
X3425004Y5849988D02*
G01*
X3112622Y5849988D01*
X574997Y5149989D02*
G01*
X887376Y5149989D01*
X574997Y5149989D02*
G01*
X574997Y5291975D01*
X574997Y5849988D02*
G01*
X574997Y5708002D01*
X574997Y5849988D02*
G01*
X887376Y5849988D01*
X1035974Y6307609D02*
G01*
X1033548Y6307609D01*
X887376Y6161438D01*
D10*
X3112615Y6307609D02*
G01*
X887376Y6307609D01*
X887376Y6307609D02*
G01*
X887376Y5698309D01*
X3112615Y4692368D02*
G01*
X887376Y4692368D01*
X1687375Y2492372D02*
G01*
X1687375Y3101672D01*
D11*
X3719990Y3964990D02*
G01*
X3829994Y3964990D01*
X1879998Y2634995D02*
G01*
X1769998Y2634995D01*
X1824997Y2579994D02*
G01*
X1824997Y2689994D01*
X1687375Y3498314D02*
G01*
X1687375Y3094299D01*
D10*
X3979992Y4104990D02*
G01*
X3979992Y2494749D01*
D11*
X3979992Y4107367D02*
G01*
X3964990Y4107367D01*
X3964990Y2492369D01*
X3979992Y2492369D01*
X4225002Y2949994D02*
G01*
X3912621Y2949994D01*
X4225002Y2949994D02*
G01*
X4225005Y3091980D01*
X4225002Y3649992D02*
G01*
X4225005Y3508006D01*
X4225002Y3649992D02*
G01*
X3912621Y3649992D01*
X1374995Y2949994D02*
G01*
X1687375Y2949994D01*
X1374995Y2949994D02*
G01*
X1374995Y3091980D01*
X1374995Y3649992D02*
G01*
X1374995Y3508006D01*
X1374995Y3649992D02*
G01*
X1687375Y3649992D01*
X1835972Y4107614D02*
G01*
X1833547Y4107614D01*
X1687375Y3961442D01*
D10*
X3912613Y4107614D02*
G01*
X1687375Y4107614D01*
X1687375Y4107614D02*
G01*
X1687375Y3498314D01*
X3912613Y2492372D02*
G01*
X1687375Y2492372D01*
D12*
X1408798Y8077200D02*
G01*
X1408798Y7797800D01*
X1408798Y7797800D02*
G01*
X308800Y7797800D01*
X1408798Y8699500D02*
G01*
X299999Y8704999D01*
X1408798Y8699500D02*
G01*
X1408798Y8438415D01*
X299999Y8704999D02*
G01*
X303898Y8432800D01*
X303898Y8077200D02*
G01*
X299999Y7805000D01*
D10*
X358780Y3261090D02*
G01*
X230286Y3261090D01*
X230286Y3444509D01*
X358780Y3444509D01*
X454019Y3261090D02*
G01*
X582513Y3261090D01*
X582513Y3444509D01*
X454019Y3444509D01*
D13*
X1257302Y9055102D02*
G01*
X1321899Y9055102D01*
X1206502Y9055102D02*
G01*
X1141897Y9055102D01*
X1321899Y9053497D02*
G01*
X1321899Y8853502D01*
X1141897Y8853502D01*
X1141897Y9053497D01*
X2717802Y9499597D02*
G01*
X2717802Y9435000D01*
X2717802Y9550397D02*
G01*
X2717802Y9615002D01*
X2716197Y9435000D02*
G01*
X2516202Y9435000D01*
X2516202Y9615002D01*
X2716197Y9615002D01*
D10*
X326176Y2893039D02*
G01*
X230289Y2893039D01*
X230289Y3025160D01*
X326176Y3025160D01*
X411419Y2893039D02*
G01*
X507306Y2893039D01*
X507306Y3025160D01*
X411419Y3025160D01*
D11*
G75*
G01*
X3689637Y8507646D02*
G02*
X3690503Y6892955I-589642J-807662D01*
G75*
G01*
X2510356Y6892323D02*
G02*
X2509487Y8507014I589641J807663D01*
G75*
G01*
X2589639Y6307651D02*
G02*
X2590505Y4692960I-589642J-807662D01*
G75*
G01*
X1410358Y4692327D02*
G02*
X1409489Y6307018I589641J807663D01*
G75*
G01*
X3389638Y4107655D02*
G02*
X3390504Y2492964I-589643J-807662D01*
G75*
G01*
X2210356Y2492332D02*
G02*
X2209488Y4107023I589642J807663D01*
D13*
G75*
G01*
X1257300Y9055100D02*
G02*
X1206500Y9055100I-25400J0D01*
G75*
G01*
X2717800Y9499600D02*
G02*
X2717800Y9550400I0J25400D01*
D14*
G75*
G01
X2216785Y7034987D02*
G03X2216785Y7034987I-91796J0D01*
G75*
G01
X4166794Y8364982D02*
G03X4166794Y8364982I-91796J0D01*
G75*
G01
X1116787Y4834992D02*
G03X1116787Y4834992I-91796J0D01*
G75*
G01
X3066796Y6164986D02*
G03X3066796Y6164986I-91796J0D01*
G75*
G01
X1916786Y2634996D02*
G03X1916786Y2634996I-91796J0D01*
G75*
G01
X3866794Y3964991D02*
G03X3866794Y3964991I-91796J0D01*
M02*
