G04 Layer: TopLayer*
G04 EasyEDA v6.5.42, 2024-05-28 01:04:16*
G04 864da046108442dba22ddf06c26b1ed7,510c7b70758e4c7f89447156c1b3190b,10*
G04 Gerber Generator version 0.2*
G04 Scale: 100 percent, Rotated: No, Reflected: No *
G04 Dimensions in millimeters *
G04 leading zeros omitted , absolute positions ,4 integer and 5 decimal *
%FSLAX45Y45*%
%MOMM*%

%ADD10C,0.2540*%
%ADD11R,1.1999X0.4999*%
%ADD12R,0.4999X1.1999*%
%ADD13R,0.4001X0.5999*%
%ADD14C,1.5240*%
%ADD15R,1.6000X1.6000*%
%ADD16C,1.6000*%
%ADD17C,1.8000*%
%ADD18C,0.6100*%

%LPD*%
D10*
X3930294Y3019602D02*
G01*
X2966313Y3983583D01*
X2966313Y8959469D01*
X1806371Y9172473D02*
G01*
X1699996Y9172473D01*
X2762351Y9292056D02*
G01*
X2762351Y2850895D01*
X1699996Y9022486D02*
G01*
X1787905Y9022486D01*
X4898821Y9024950D02*
G01*
X4965065Y8958706D01*
X4965065Y3048990D01*
X6248755Y1765300D01*
X6438900Y1765300D01*
X1787905Y9022486D02*
G01*
X1930171Y8880220D01*
X1930171Y8642045D01*
X5907303Y2972841D02*
G01*
X5907303Y2804896D01*
X6438900Y2273300D01*
X1699996Y9097492D02*
G01*
X2185873Y9097492D01*
X2560650Y8722715D01*
X2560650Y4390897D01*
X2902889Y2806344D02*
G01*
X2902889Y9344812D01*
X2734487Y9513214D01*
X1120012Y1334541D02*
G01*
X675944Y890473D01*
X675944Y237947D01*
X4521200Y9309100D02*
G01*
X4919954Y8910345D01*
X4919954Y2748432D01*
X6438900Y2781300D02*
G01*
X6438900Y3035300D01*
X4013200Y9309100D02*
G01*
X4013200Y9563100D01*
X2342921Y8855760D02*
G01*
X2342921Y349072D01*
X2453995Y237997D01*
X1691944Y237947D02*
G01*
X1327632Y602259D01*
X1327632Y7938338D01*
X699998Y9072473D02*
G01*
X1030300Y9072473D01*
X1235405Y8867368D01*
X843026Y8962339D02*
G01*
X807872Y8997492D01*
X699998Y8997492D01*
X2199944Y237947D02*
G01*
X2073020Y364870D01*
X2072995Y364870D01*
X2072995Y8856954D01*
X3215944Y237947D02*
G01*
X2820924Y632968D01*
X2820924Y9316338D01*
X2651582Y9485680D01*
X2641218Y9485680D01*
X2641218Y9485680D02*
G01*
X1655749Y9485680D01*
X1215694Y9045625D01*
X1215694Y8987739D01*
X2641218Y9485680D02*
G01*
X2641218Y9529470D01*
X1564995Y3591077D02*
G01*
X1564995Y8199983D01*
X1554734Y8288070D02*
G01*
X822325Y8288070D01*
X787907Y8322487D01*
X1564995Y8277809D02*
G01*
X1554734Y8288070D01*
X1699996Y9397492D02*
G01*
X1643938Y9397492D01*
X1611909Y9365462D01*
X1611909Y8345246D01*
X1554734Y8288070D01*
X787907Y9379991D02*
G01*
X787907Y9280448D01*
X699998Y9379991D02*
G01*
X787907Y9379991D01*
X3215995Y1761997D02*
G01*
X3723995Y1253997D01*
X3723995Y237997D01*
X699998Y9379991D02*
G01*
X612089Y9379991D01*
X656056Y9147479D02*
G01*
X612089Y9191447D01*
X612089Y9379991D01*
X656056Y9147479D02*
G01*
X612089Y9147479D01*
X699998Y9147479D02*
G01*
X656056Y9147479D01*
X699998Y8322487D02*
G01*
X612089Y8322487D01*
X612089Y8322487D02*
G01*
X611911Y8322665D01*
X611911Y9147302D01*
X612089Y9147479D01*
X741146Y8322487D02*
G01*
X699998Y8322487D01*
X741146Y8322487D02*
G01*
X787907Y8322487D01*
X1564995Y8199983D02*
G01*
X1564995Y8277809D01*
D11*
G01*
X699998Y9379991D03*
G01*
X699998Y9147479D03*
G01*
X699998Y9072473D03*
G01*
X699998Y8997492D03*
G01*
X699998Y8922486D03*
G01*
X699998Y8847480D03*
G01*
X699998Y8772474D03*
G01*
X699998Y8697493D03*
G01*
X699998Y8622487D03*
G01*
X699998Y8547480D03*
G01*
X699998Y8472474D03*
G01*
X699998Y8397494D03*
G01*
X699998Y8322487D03*
D12*
G01*
X815009Y8199983D03*
G01*
X889990Y8199983D03*
G01*
X964996Y8199983D03*
G01*
X1040003Y8199983D03*
G01*
X1115009Y8199983D03*
G01*
X1189989Y8199983D03*
G01*
X1264996Y8199983D03*
G01*
X1340002Y8199983D03*
G01*
X1415008Y8199983D03*
G01*
X1489989Y8199983D03*
G01*
X1564995Y8199983D03*
D11*
G01*
X1699996Y8272475D03*
G01*
X1699996Y8347481D03*
G01*
X1699996Y8422487D03*
G01*
X1699996Y8497493D03*
G01*
X1699996Y8572474D03*
G01*
X1699996Y8647480D03*
G01*
X1699996Y8722487D03*
G01*
X1699996Y8797493D03*
G01*
X1699996Y8872474D03*
G01*
X1699996Y8947480D03*
G01*
X1699996Y9022486D03*
G01*
X1699996Y9097492D03*
G01*
X1699996Y9172473D03*
G01*
X1699996Y9247479D03*
G01*
X1699996Y9322485D03*
G01*
X1699996Y9397492D03*
D13*
G01*
X1519986Y9144990D03*
G01*
X1389989Y8374989D03*
D14*
G01*
X6438900Y3289300D03*
G01*
X6438900Y3035300D03*
G01*
X6438900Y2781300D03*
G01*
X6438900Y2527300D03*
G01*
X6438900Y2273300D03*
G01*
X6438900Y2019300D03*
G01*
X6438900Y1765300D03*
G01*
X6438900Y1511300D03*
D15*
G01*
X3977995Y1761997D03*
D16*
G01*
X3723995Y237997D03*
G01*
X3215944Y237947D03*
G01*
X2707944Y237947D03*
G01*
X2199944Y237947D03*
G01*
X1691944Y237947D03*
G01*
X1183944Y237947D03*
G01*
X675944Y237947D03*
G01*
X421995Y1761997D03*
G01*
X930046Y1761947D03*
G01*
X1438046Y1761947D03*
G01*
X1946046Y1761947D03*
G01*
X2454046Y1761947D03*
G01*
X2962046Y1761947D03*
G01*
X3470046Y1761947D03*
G01*
X3723995Y1761997D03*
G01*
X3215995Y1761997D03*
G01*
X2707995Y1761997D03*
G01*
X2199995Y1761997D03*
G01*
X1691995Y1761997D03*
G01*
X1183995Y1761997D03*
G01*
X675995Y1761997D03*
G01*
X421995Y237997D03*
G01*
X929995Y237997D03*
G01*
X1437995Y237997D03*
G01*
X1945995Y237997D03*
G01*
X2453995Y237997D03*
G01*
X2961995Y237997D03*
G01*
X3469995Y237997D03*
D15*
G01*
X3977995Y237997D03*
D17*
G01*
X3759200Y9563100D03*
G01*
X4013200Y9563100D03*
G01*
X4267200Y9563100D03*
G01*
X4521200Y9563100D03*
G01*
X4521200Y9309100D03*
G01*
X4267200Y9309100D03*
G01*
X4013200Y9309100D03*
G01*
X3759200Y9309100D03*
D18*
G01*
X1806371Y9172473D03*
G01*
X2966313Y8959469D03*
G01*
X3930294Y3019602D03*
G01*
X2762351Y9292056D03*
G01*
X2762351Y2850895D03*
G01*
X4898821Y9024950D03*
G01*
X1930171Y8642045D03*
G01*
X5907303Y2972841D03*
G01*
X2560650Y4390897D03*
G01*
X2734487Y9513214D03*
G01*
X2902889Y2806344D03*
G01*
X1120012Y1334541D03*
G01*
X4919954Y2748432D03*
G01*
X2342921Y8855760D03*
G01*
X1327632Y7938338D03*
G01*
X1235405Y8867368D03*
G01*
X843026Y8962339D03*
G01*
X2072995Y8856954D03*
G01*
X2641218Y9529470D03*
G01*
X1215694Y8987739D03*
G01*
X1564995Y3591077D03*
G01*
X787907Y9280448D03*
M02*
