G04 Layer: BottomPasteMaskLayer*
G04 EasyEDA v6.5.42, 2024-05-28 01:04:16*
G04 864da046108442dba22ddf06c26b1ed7,510c7b70758e4c7f89447156c1b3190b,10*
G04 Gerber Generator version 0.2*
G04 Scale: 100 percent, Rotated: No, Reflected: No *
G04 Dimensions in millimeters *
G04 leading zeros omitted , absolute positions ,4 integer and 5 decimal *
%FSLAX45Y45*%
%MOMM*%

%AMMACRO1*21,1,$1,$2,0,0,$3*%
%ADD10MACRO1,4.2001X3.7998X0.0000*%
%ADD11MACRO1,3X3X90.0000*%
%ADD12O,0.7500112X0.2500122*%
%ADD13O,0.2500122X0.7500112*%

%LPD*%
G36*
X456387Y3421786D02*
G01*
X451408Y3416808D01*
X450900Y3375812D01*
X495909Y3375812D01*
X495909Y3330803D01*
X451916Y3330803D01*
X451408Y3288792D01*
X456387Y3283813D01*
X571398Y3283813D01*
X576427Y3288792D01*
X576427Y3416808D01*
X571398Y3421786D01*
G37*
G36*
X241401Y3421786D02*
G01*
X236423Y3416808D01*
X236423Y3288792D01*
X241401Y3283813D01*
X356412Y3283813D01*
X361391Y3288792D01*
X361391Y3330803D01*
X316890Y3330803D01*
X316890Y3375812D01*
X360883Y3375812D01*
X361391Y3416808D01*
X356412Y3421786D01*
G37*
G36*
X249275Y3004108D02*
G01*
X244297Y2999079D01*
X244297Y2919120D01*
X249275Y2914091D01*
X329285Y2914091D01*
X334314Y2919120D01*
X334314Y2943301D01*
X297281Y2943301D01*
X297281Y2976321D01*
X334314Y2976321D01*
X334314Y2999079D01*
X329285Y3004108D01*
G37*
G36*
X409295Y3004108D02*
G01*
X404317Y2999079D01*
X404317Y2976321D01*
X442315Y2976321D01*
X442315Y2943301D01*
X404317Y2943301D01*
X404317Y2919120D01*
X409295Y2914091D01*
X488289Y2914091D01*
X493318Y2919120D01*
X493318Y2999079D01*
X488289Y3004108D01*
G37*
D10*
G01*
X1661490Y7699984D03*
G01*
X4538497Y7699984D03*
G01*
X561492Y5499988D03*
G01*
X3438499Y5499988D03*
G01*
X1361490Y3299993D03*
G01*
X4238497Y3299993D03*
D11*
G01*
X1500009Y8254987D03*
G01*
X199986Y8254987D03*
D12*
G01*
X1076934Y9028506D03*
G01*
X1076934Y8978493D03*
G01*
X1076934Y8928506D03*
G01*
X1076934Y8878493D03*
G01*
X1386916Y8878493D03*
G01*
X1386916Y8928506D03*
G01*
X1386916Y8978493D03*
G01*
X1386916Y9028506D03*
D13*
G01*
X2691206Y9679965D03*
G01*
X2641193Y9679965D03*
G01*
X2591206Y9679965D03*
G01*
X2541193Y9679965D03*
G01*
X2541193Y9369983D03*
G01*
X2591206Y9369983D03*
G01*
X2641193Y9369983D03*
G01*
X2691206Y9369983D03*
M02*
