G04 Layer: BottomLayer*
G04 EasyEDA v6.5.42, 2024-05-28 01:04:16*
G04 864da046108442dba22ddf06c26b1ed7,510c7b70758e4c7f89447156c1b3190b,10*
G04 Gerber Generator version 0.2*
G04 Scale: 100 percent, Rotated: No, Reflected: No *
G04 Dimensions in millimeters *
G04 leading zeros omitted , absolute positions ,4 integer and 5 decimal *
%FSLAX45Y45*%
%MOMM*%

%AMMACRO1*21,1,$1,$2,0,0,$3*%
%ADD10C,0.2540*%
%ADD11MACRO1,4.2X3.8X0.0000*%
%ADD12MACRO1,3X3X90.0000*%
%ADD13MACRO1,1.377X1.1325X90.0000*%
%ADD14O,0.7500112X0.2500122*%
%ADD15O,0.2500122X0.7500112*%
%ADD16MACRO1,0.864X0.8065X90.0000*%
%ADD17C,1.5240*%
%ADD18R,1.6000X1.6000*%
%ADD19C,1.6000*%
%ADD20C,1.8000*%
%ADD21C,0.6100*%

%LPD*%
D10*
X4521200Y9563100D02*
G01*
X4286504Y9797795D01*
X2545029Y9797795D01*
X2500020Y9752787D01*
X2500020Y9411182D01*
X2541193Y9370009D01*
X3759200Y9309100D02*
G01*
X3313049Y9755251D01*
X2570962Y9755251D01*
X2541193Y9725482D01*
X2541193Y9679990D01*
X4538497Y7699984D02*
G01*
X4538497Y7482078D01*
X561492Y5499988D02*
G01*
X561492Y5717895D01*
X561492Y5717895D02*
G01*
X2774315Y5717895D01*
X4538497Y7482078D01*
X444144Y2959100D02*
G01*
X512368Y2959100D01*
X1945995Y237997D02*
G01*
X808101Y1375892D01*
X808101Y2663367D01*
X512368Y2959100D01*
X444144Y2959100D02*
G01*
X444144Y3030220D01*
X306400Y3352800D02*
G01*
X390931Y3352800D01*
X444144Y3030220D02*
G01*
X390931Y3083432D01*
X390931Y3352800D01*
X3438499Y5282082D02*
G01*
X3125673Y5282082D01*
X1361490Y3517900D01*
X3438499Y5499988D02*
G01*
X3438499Y5282082D01*
X1361490Y3299993D02*
G01*
X1361490Y3517900D01*
X6438900Y2527300D02*
G01*
X6122644Y2843555D01*
X4106316Y2843555D01*
X4106316Y2843580D01*
X3930294Y3019602D01*
X2966313Y8959469D02*
G01*
X2450363Y8959469D01*
X2237359Y9172473D01*
X1806371Y9172473D01*
X3977995Y237997D02*
G01*
X3870070Y237997D01*
X259359Y2959100D02*
G01*
X259359Y1738579D01*
X1569516Y428421D01*
X1569516Y189585D01*
X1637817Y121285D01*
X3780332Y121285D01*
X3870070Y211023D01*
X3870070Y237997D01*
X259359Y2959100D02*
G01*
X225247Y2959100D01*
X293471Y2959100D02*
G01*
X259359Y2959100D01*
X1661490Y7699984D02*
G01*
X1661490Y7241717D01*
X207111Y5787339D01*
X207111Y2977235D01*
X225247Y2959100D01*
X2762351Y9292056D02*
G01*
X2793060Y9322765D01*
X2793060Y9578136D01*
X2691206Y9679990D01*
X1183995Y1761997D02*
G01*
X2272893Y2850895D01*
X2762351Y2850895D01*
X1930171Y8642045D02*
G01*
X4515916Y8642045D01*
X4898821Y9024950D01*
X2560650Y4390897D02*
G01*
X3620211Y4390897D01*
X5038267Y2972841D01*
X5907303Y2972841D01*
X2734487Y9513214D02*
G01*
X2691206Y9469932D01*
X2691206Y9370009D01*
X1438046Y1761947D02*
G01*
X1546199Y1870100D01*
X1966645Y1870100D01*
X2902889Y2806344D01*
X4919954Y2748432D02*
G01*
X4291888Y2748432D01*
X3343020Y1799564D01*
X3343020Y1726692D01*
X2950870Y1334541D01*
X1120012Y1334541D01*
X6438900Y2781300D02*
G01*
X6544741Y2675458D01*
X6544741Y2475001D01*
X6488328Y2418587D01*
X6297066Y2418587D01*
X5967222Y2748432D01*
X4919954Y2748432D01*
X2591206Y9320580D02*
G01*
X2513253Y9242628D01*
X1197457Y9242628D01*
X1003579Y9048750D01*
X1003579Y8964066D01*
X1039139Y8928506D01*
X1076934Y8928506D01*
X2591206Y9370009D02*
G01*
X2591206Y9320580D01*
X1076934Y8928506D02*
G01*
X1386916Y8928506D01*
X2591206Y9679990D02*
G01*
X2582646Y9671430D01*
X2582646Y9378569D01*
X2591206Y9370009D01*
X4013200Y9309100D02*
G01*
X3843781Y9139681D01*
X2772105Y9139681D01*
X2591206Y9320580D01*
X4267200Y9563100D02*
G01*
X4013200Y9563100D01*
X4521200Y9309100D02*
G01*
X4267200Y9563100D01*
X1076934Y9028506D02*
G01*
X1120343Y9071914D01*
X2126767Y9071914D01*
X2342921Y8855760D01*
X1500022Y8255000D02*
G01*
X1500022Y8077098D01*
X1500022Y8077098D02*
G01*
X1466392Y8077098D01*
X1327632Y7938338D01*
X1386916Y8878493D02*
G01*
X1375790Y8867368D01*
X1235405Y8867368D01*
X1076934Y8878493D02*
G01*
X926871Y8878493D01*
X843026Y8962339D01*
X1386916Y9028506D02*
G01*
X1901444Y9028506D01*
X2072995Y8856954D01*
X1076934Y8978493D02*
G01*
X1206449Y8978493D01*
X1215694Y8987739D01*
X2641218Y9529470D02*
G01*
X2641193Y9529495D01*
X2641193Y9679990D01*
X1464259Y8826398D02*
G01*
X1464259Y8956116D01*
X1441881Y8978493D01*
X1386916Y8978493D01*
X784453Y8852204D02*
G01*
X827989Y8808669D01*
X1446529Y8808669D01*
X1464259Y8826398D01*
X3880484Y9436100D02*
G01*
X4055668Y9436100D01*
X4140200Y9351568D01*
X4140200Y9262745D01*
X3671620Y8794165D01*
X1496491Y8794165D01*
X1464259Y8826398D01*
X199999Y8432927D02*
G01*
X619277Y8852204D01*
X784453Y8852204D01*
X787907Y9280448D02*
G01*
X784453Y9276994D01*
X784453Y8852204D01*
X1602994Y3075812D02*
G01*
X1602994Y3553079D01*
X1564995Y3591077D01*
X2984830Y2909620D02*
G01*
X1769186Y2909620D01*
X1602994Y3075812D01*
X1602994Y3075812D02*
G01*
X867943Y3075812D01*
X590956Y3352800D01*
X3759200Y9563100D02*
G01*
X3880484Y9441814D01*
X3880484Y9436100D01*
X3880484Y9436100D02*
G01*
X3880484Y9262186D01*
X3798747Y9180449D01*
X2791129Y9180449D01*
X2641193Y9330385D01*
X2641193Y9370009D01*
X2984830Y2909620D02*
G01*
X3157296Y3082086D01*
X4238497Y3082086D01*
X3215995Y1761997D02*
G01*
X2984830Y1993163D01*
X2984830Y2909620D01*
X6438900Y1511300D02*
G01*
X6585534Y1657934D01*
X6585534Y2791282D01*
X6464147Y2912668D01*
X4407915Y2912668D01*
X4238497Y3082086D01*
X4238497Y3299993D02*
G01*
X4238497Y3082086D01*
X506399Y3352800D02*
G01*
X590956Y3352800D01*
X199999Y8255000D02*
G01*
X199999Y8432927D01*
D11*
G01*
X1661490Y7699984D03*
G01*
X4538497Y7699984D03*
G01*
X561492Y5499989D03*
G01*
X3438499Y5499989D03*
G01*
X1361490Y3299993D03*
G01*
X4238497Y3299993D03*
D12*
G01*
X1500009Y8255000D03*
G01*
X199986Y8255000D03*
D13*
G01*
X306395Y3352800D03*
G01*
X506404Y3352800D03*
D14*
G01*
X1076934Y9028506D03*
G01*
X1076934Y8978493D03*
G01*
X1076934Y8928506D03*
G01*
X1076934Y8878493D03*
G01*
X1386916Y8878493D03*
G01*
X1386916Y8928506D03*
G01*
X1386916Y8978493D03*
G01*
X1386916Y9028506D03*
D15*
G01*
X2691206Y9679965D03*
G01*
X2641193Y9679965D03*
G01*
X2591206Y9679965D03*
G01*
X2541193Y9679965D03*
G01*
X2541193Y9369983D03*
G01*
X2591206Y9369983D03*
G01*
X2641193Y9369983D03*
G01*
X2691206Y9369983D03*
D16*
G01*
X293472Y2959100D03*
G01*
X444122Y2959100D03*
D17*
G01*
X6438900Y3289300D03*
G01*
X6438900Y3035300D03*
G01*
X6438900Y2781300D03*
G01*
X6438900Y2527300D03*
G01*
X6438900Y2273300D03*
G01*
X6438900Y2019300D03*
G01*
X6438900Y1765300D03*
G01*
X6438900Y1511300D03*
D18*
G01*
X3977995Y1761997D03*
D19*
G01*
X3723995Y237997D03*
G01*
X3215944Y237947D03*
G01*
X2707944Y237947D03*
G01*
X2199944Y237947D03*
G01*
X1691944Y237947D03*
G01*
X1183944Y237947D03*
G01*
X675944Y237947D03*
G01*
X421995Y1761997D03*
G01*
X930046Y1761947D03*
G01*
X1438046Y1761947D03*
G01*
X1946046Y1761947D03*
G01*
X2454046Y1761947D03*
G01*
X2962046Y1761947D03*
G01*
X3470046Y1761947D03*
G01*
X3723995Y1761997D03*
G01*
X3215995Y1761997D03*
G01*
X2707995Y1761997D03*
G01*
X2199995Y1761997D03*
G01*
X1691995Y1761997D03*
G01*
X1183995Y1761997D03*
G01*
X675995Y1761997D03*
G01*
X421995Y237997D03*
G01*
X929995Y237997D03*
G01*
X1437995Y237997D03*
G01*
X1945995Y237997D03*
G01*
X2453995Y237997D03*
G01*
X2961995Y237997D03*
G01*
X3469995Y237997D03*
D18*
G01*
X3977995Y237997D03*
D20*
G01*
X3759200Y9563100D03*
G01*
X4013200Y9563100D03*
G01*
X4267200Y9563100D03*
G01*
X4521200Y9563100D03*
G01*
X4521200Y9309100D03*
G01*
X4267200Y9309100D03*
G01*
X4013200Y9309100D03*
G01*
X3759200Y9309100D03*
D21*
G01*
X1806371Y9172473D03*
G01*
X2966313Y8959469D03*
G01*
X3930294Y3019602D03*
G01*
X2762351Y9292056D03*
G01*
X2762351Y2850895D03*
G01*
X4898821Y9024950D03*
G01*
X1930171Y8642045D03*
G01*
X5907303Y2972841D03*
G01*
X2560650Y4390897D03*
G01*
X2734487Y9513214D03*
G01*
X2902889Y2806344D03*
G01*
X1120012Y1334541D03*
G01*
X4919954Y2748432D03*
G01*
X2342921Y8855760D03*
G01*
X1327632Y7938338D03*
G01*
X1235405Y8867368D03*
G01*
X843026Y8962339D03*
G01*
X2072995Y8856954D03*
G01*
X2641218Y9529470D03*
G01*
X1215694Y8987739D03*
G01*
X1564995Y3591077D03*
G01*
X787907Y9280448D03*
M02*
