G04 Layer: TopSolderMaskLayer*
G04 EasyEDA v6.5.42, 2024-05-28 01:04:16*
G04 864da046108442dba22ddf06c26b1ed7,510c7b70758e4c7f89447156c1b3190b,10*
G04 Gerber Generator version 0.2*
G04 Scale: 100 percent, Rotated: No, Reflected: No *
G04 Dimensions in millimeters *
G04 leading zeros omitted , absolute positions ,4 integer and 5 decimal *
%FSLAX45Y45*%
%MOMM*%

%AMMACRO1*1,1,$1,$2,$3*1,1,$1,$4,$5*1,1,$1,0-$2,0-$3*1,1,$1,0-$4,0-$5*20,1,$1,$2,$3,$4,$5,0*20,1,$1,$4,$5,0-$2,0-$3,0*20,1,$1,0-$2,0-$3,0-$4,0-$5,0*20,1,$1,0-$4,0-$5,$2,$3,0*4,1,4,$2,$3,$4,$5,0-$2,0-$3,0-$4,0-$5,$2,$3,0*%
%ADD10C,1.6240*%
%ADD11MACRO1,0.1016X-0.8X0.8X0.8X0.8*%
%ADD12C,1.7016*%
%ADD13C,1.9016*%
%ADD14MACRO1,0.1016X-0.5999X0.2499X0.5999X0.2499*%
%ADD15R,0.6015X1.3015*%
%ADD16R,0.5017X0.7015*%

%LPD*%
D10*
G01*
X6438900Y3289300D03*
G01*
X6438900Y3035300D03*
G01*
X6438900Y2781300D03*
G01*
X6438900Y2527300D03*
G01*
X6438900Y2273300D03*
G01*
X6438900Y2019300D03*
G01*
X6438900Y1765300D03*
G01*
X6438900Y1511300D03*
D11*
G01*
X3977995Y1761998D03*
D12*
G01*
X3723995Y237997D03*
G01*
X3215944Y237947D03*
G01*
X2707944Y237947D03*
G01*
X2199944Y237947D03*
G01*
X1691944Y237947D03*
G01*
X1183944Y237947D03*
G01*
X675944Y237947D03*
G01*
X421995Y1761997D03*
G01*
X930046Y1761947D03*
G01*
X1438046Y1761947D03*
G01*
X1946046Y1761947D03*
G01*
X2454046Y1761947D03*
G01*
X2962046Y1761947D03*
G01*
X3470046Y1761947D03*
G01*
X3723995Y1761997D03*
G01*
X3215995Y1761997D03*
G01*
X2707995Y1761997D03*
G01*
X2199995Y1761997D03*
G01*
X1691995Y1761997D03*
G01*
X1183995Y1761997D03*
G01*
X675995Y1761997D03*
G01*
X421995Y237997D03*
G01*
X929995Y237997D03*
G01*
X1437995Y237997D03*
G01*
X1945995Y237997D03*
G01*
X2453995Y237997D03*
G01*
X2961995Y237997D03*
G01*
X3469995Y237997D03*
D11*
G01*
X3977995Y237998D03*
D13*
G01*
X3759200Y9563100D03*
G01*
X4013200Y9563100D03*
G01*
X4267200Y9563100D03*
G01*
X4521200Y9563100D03*
G01*
X4521200Y9309100D03*
G01*
X4267200Y9309100D03*
G01*
X4013200Y9309100D03*
G01*
X3759200Y9309100D03*
D14*
G01*
X699998Y9379991D03*
G01*
X699998Y9147479D03*
G01*
X699998Y9072473D03*
G01*
X699998Y8997492D03*
G01*
X699998Y8922486D03*
G01*
X699998Y8847480D03*
G01*
X699998Y8772474D03*
G01*
X699998Y8697493D03*
G01*
X699998Y8622487D03*
G01*
X699998Y8547480D03*
G01*
X699998Y8472474D03*
G01*
X699998Y8397494D03*
G01*
X699998Y8322487D03*
D15*
G01*
X815009Y8199983D03*
G01*
X889990Y8199983D03*
G01*
X964996Y8199983D03*
G01*
X1040003Y8199983D03*
G01*
X1115009Y8199983D03*
G01*
X1189989Y8199983D03*
G01*
X1264996Y8199983D03*
G01*
X1340002Y8199983D03*
G01*
X1415008Y8199983D03*
G01*
X1489989Y8199983D03*
G01*
X1564995Y8199983D03*
D14*
G01*
X1699996Y8272475D03*
G01*
X1699996Y8347481D03*
G01*
X1699996Y8422487D03*
G01*
X1699996Y8497493D03*
G01*
X1699996Y8572474D03*
G01*
X1699996Y8647480D03*
G01*
X1699996Y8722487D03*
G01*
X1699996Y8797493D03*
G01*
X1699996Y8872474D03*
G01*
X1699996Y8947480D03*
G01*
X1699996Y9022486D03*
G01*
X1699996Y9097492D03*
G01*
X1699996Y9172473D03*
G01*
X1699996Y9247479D03*
G01*
X1699996Y9322485D03*
G01*
X1699996Y9397492D03*
D16*
G01*
X1519986Y9144990D03*
G01*
X1389989Y8374989D03*
M02*
