G04 Layer: BottomSolderMaskLayer*
G04 EasyEDA v6.5.42, 2024-05-28 01:04:16*
G04 864da046108442dba22ddf06c26b1ed7,510c7b70758e4c7f89447156c1b3190b,10*
G04 Gerber Generator version 0.2*
G04 Scale: 100 percent, Rotated: No, Reflected: No *
G04 Dimensions in millimeters *
G04 leading zeros omitted , absolute positions ,4 integer and 5 decimal *
%FSLAX45Y45*%
%MOMM*%

%AMMACRO1*1,1,$1,$2,$3*1,1,$1,$4,$5*1,1,$1,0-$2,0-$3*1,1,$1,0-$4,0-$5*20,1,$1,$2,$3,$4,$5,0*20,1,$1,$4,$5,0-$2,0-$3,0*20,1,$1,0-$2,0-$3,0-$4,0-$5,0*20,1,$1,0-$4,0-$5,$2,$3,0*4,1,4,$2,$3,$4,$5,0-$2,0-$3,0-$4,0-$5,$2,$3,0*%
%ADD10MACRO1,0.1016X2.1X1.9X-2.1X1.9*%
%ADD11MACRO1,0.1016X1.5X-1.5X1.5X1.5*%
%ADD12MACRO1,0.1016X0.5663X-0.6885X0.5663X0.6885*%
%ADD13MACRO1,0.1016X-0.5663X-0.6885X-0.5663X0.6885*%
%ADD14O,0.8516112000000001X0.35161220000000004*%
%ADD15O,0.35161220000000004X0.8516112000000001*%
%ADD16MACRO1,0.1016X0.4032X-0.432X0.4032X0.432*%
%ADD17MACRO1,0.1016X-0.4032X-0.432X-0.4032X0.432*%
%ADD18C,1.6240*%
%ADD19MACRO1,0.1016X-0.8X0.8X0.8X0.8*%
%ADD20C,1.7016*%
%ADD21C,1.9016*%

%LPD*%
D10*
G01*
X1661490Y7699984D03*
G01*
X4538497Y7699984D03*
G01*
X561492Y5499989D03*
G01*
X3438499Y5499989D03*
G01*
X1361490Y3299993D03*
G01*
X4238497Y3299993D03*
D11*
G01*
X1500009Y8255000D03*
G01*
X199986Y8255000D03*
D12*
G01*
X306395Y3352800D03*
D13*
G01*
X506404Y3352800D03*
D14*
G01*
X1076934Y9028506D03*
G01*
X1076934Y8978493D03*
G01*
X1076934Y8928506D03*
G01*
X1076934Y8878493D03*
G01*
X1386916Y8878493D03*
G01*
X1386916Y8928506D03*
G01*
X1386916Y8978493D03*
G01*
X1386916Y9028506D03*
D15*
G01*
X2691206Y9679965D03*
G01*
X2641193Y9679965D03*
G01*
X2591206Y9679965D03*
G01*
X2541193Y9679965D03*
G01*
X2541193Y9369983D03*
G01*
X2591206Y9369983D03*
G01*
X2641193Y9369983D03*
G01*
X2691206Y9369983D03*
D16*
G01*
X293472Y2959100D03*
D17*
G01*
X444122Y2959100D03*
D18*
G01*
X6438900Y3289300D03*
G01*
X6438900Y3035300D03*
G01*
X6438900Y2781300D03*
G01*
X6438900Y2527300D03*
G01*
X6438900Y2273300D03*
G01*
X6438900Y2019300D03*
G01*
X6438900Y1765300D03*
G01*
X6438900Y1511300D03*
D19*
G01*
X3977995Y1761998D03*
D20*
G01*
X3723995Y237997D03*
G01*
X3215944Y237947D03*
G01*
X2707944Y237947D03*
G01*
X2199944Y237947D03*
G01*
X1691944Y237947D03*
G01*
X1183944Y237947D03*
G01*
X675944Y237947D03*
G01*
X421995Y1761997D03*
G01*
X930046Y1761947D03*
G01*
X1438046Y1761947D03*
G01*
X1946046Y1761947D03*
G01*
X2454046Y1761947D03*
G01*
X2962046Y1761947D03*
G01*
X3470046Y1761947D03*
G01*
X3723995Y1761997D03*
G01*
X3215995Y1761997D03*
G01*
X2707995Y1761997D03*
G01*
X2199995Y1761997D03*
G01*
X1691995Y1761997D03*
G01*
X1183995Y1761997D03*
G01*
X675995Y1761997D03*
G01*
X421995Y237997D03*
G01*
X929995Y237997D03*
G01*
X1437995Y237997D03*
G01*
X1945995Y237997D03*
G01*
X2453995Y237997D03*
G01*
X2961995Y237997D03*
G01*
X3469995Y237997D03*
D19*
G01*
X3977995Y237998D03*
D21*
G01*
X3759200Y9563100D03*
G01*
X4013200Y9563100D03*
G01*
X4267200Y9563100D03*
G01*
X4521200Y9563100D03*
G01*
X4521200Y9309100D03*
G01*
X4267200Y9309100D03*
G01*
X4013200Y9309100D03*
G01*
X3759200Y9309100D03*
M02*
